<svg height="2542" width="720" xmlns="http://www.w3.org/2000/svg">
<rect height="2542" fill="#555" width="720"></rect>
<text fill="#7f7" font-family="Courier New" font-size="12" xml:space="preserve">
<tspan x="10" y="26">47 megabytes installed</tspan>
<tspan x="10" y="42"></tspan>
<tspan x="10" y="58">node_modules</tspan>
<tspan x="10" y="74">└─┬ pkgcloud@1.4.0 </tspan>
<tspan x="10" y="90">  ├── async@0.9.2 </tspan>
<tspan x="10" y="106">  ├─┬ aws-sdk@2.43.0 </tspan>
<tspan x="10" y="122">  │ ├─┬ buffer@4.9.1 </tspan>
<tspan x="10" y="138">  │ │ ├── base64-js@1.2.0 </tspan>
<tspan x="10" y="154">  │ │ ├── ieee754@1.1.8 </tspan>
<tspan x="10" y="170">  │ │ └── isarray@1.0.0 </tspan>
<tspan x="10" y="186">  │ ├── crypto-browserify@1.0.9 </tspan>
<tspan x="10" y="202">  │ ├── jmespath@0.15.0 </tspan>
<tspan x="10" y="218">  │ ├── querystring@0.2.0 </tspan>
<tspan x="10" y="234">  │ ├── sax@1.2.1 </tspan>
<tspan x="10" y="250">  │ ├─┬ url@0.10.3 </tspan>
<tspan x="10" y="266">  │ │ └── punycode@1.3.2 </tspan>
<tspan x="10" y="282">  │ ├── uuid@3.0.1 </tspan>
<tspan x="10" y="298">  │ ├── xml2js@0.4.17 </tspan>
<tspan x="10" y="314">  │ └─┬ xmlbuilder@4.2.1 </tspan>
<tspan x="10" y="330">  │   └── lodash@4.17.4 </tspan>
<tspan x="10" y="346">  ├── errs@0.3.2 </tspan>
<tspan x="10" y="362">  ├── eventemitter2@0.4.14 </tspan>
<tspan x="10" y="378">  ├── fast-json-patch@0.5.7 </tspan>
<tspan x="10" y="394">  ├── filed@0.1.0 </tspan>
<tspan x="10" y="410">  ├─┬ gcloud@0.10.0 </tspan>
<tspan x="10" y="426">  │ ├─┬ duplexify@3.5.0 </tspan>
<tspan x="10" y="442">  │ │ ├─┬ end-of-stream@1.0.0 </tspan>
<tspan x="10" y="458">  │ │ │ └─┬ once@1.3.3 </tspan>
<tspan x="10" y="474">  │ │ │   └── wrappy@1.0.2 </tspan>
<tspan x="10" y="490">  │ │ ├── inherits@2.0.3 </tspan>
<tspan x="10" y="506">  │ │ ├─┬ readable-stream@2.2.9 </tspan>
<tspan x="10" y="522">  │ │ │ ├── buffer-shims@1.0.0 </tspan>
<tspan x="10" y="538">  │ │ │ ├── process-nextick-args@1.0.7 </tspan>
<tspan x="10" y="554">  │ │ │ ├── string_decoder@1.0.0 </tspan>
<tspan x="10" y="570">  │ │ │ └── util-deprecate@1.0.2 </tspan>
<tspan x="10" y="586">  │ │ └── stream-shift@1.0.0 </tspan>
<tspan x="10" y="602">  │ ├── extend@1.3.0 </tspan>
<tspan x="10" y="618">  │ ├─┬ gapitoken@0.1.5 </tspan>
<tspan x="10" y="634">  │ │ ├─┬ jws@3.0.0 </tspan>
<tspan x="10" y="650">  │ │ │ ├─┬ base64url@1.0.6 </tspan>
<tspan x="10" y="666">  │ │ │ │ ├─┬ concat-stream@1.4.10 </tspan>
<tspan x="10" y="682">  │ │ │ │ │ ├─┬ readable-stream@1.1.14 </tspan>
<tspan x="10" y="698">  │ │ │ │ │ │ ├── isarray@0.0.1 </tspan>
<tspan x="10" y="714">  │ │ │ │ │ │ └── string_decoder@0.10.31 </tspan>
<tspan x="10" y="730">  │ │ │ │ │ └── typedarray@0.0.6 </tspan>
<tspan x="10" y="746">  │ │ │ │ └─┬ meow@2.0.0 </tspan>
<tspan x="10" y="762">  │ │ │ │   ├─┬ camelcase-keys@1.0.0 </tspan>
<tspan x="10" y="778">  │ │ │ │   │ ├── camelcase@1.2.1 </tspan>
<tspan x="10" y="794">  │ │ │ │   │ └── map-obj@1.0.1 </tspan>
<tspan x="10" y="810">  │ │ │ │   ├─┬ indent-string@1.2.2 </tspan>
<tspan x="10" y="826">  │ │ │ │   │ ├── get-stdin@4.0.1 </tspan>
<tspan x="10" y="842">  │ │ │ │   │ └─┬ repeating@1.1.3 </tspan>
<tspan x="10" y="858">  │ │ │ │   │   └─┬ is-finite@1.0.2 </tspan>
<tspan x="10" y="874">  │ │ │ │   │     └── number-is-nan@1.0.1 </tspan>
<tspan x="10" y="890">  │ │ │ │   ├── minimist@1.2.0 </tspan>
<tspan x="10" y="906">  │ │ │ │   └── object-assign@1.0.0 </tspan>
<tspan x="10" y="922">  │ │ │ └─┬ jwa@1.0.2 </tspan>
<tspan x="10" y="938">  │ │ │   ├── base64url@0.0.6 </tspan>
<tspan x="10" y="954">  │ │ │   ├── buffer-equal-constant-time@1.0.1 </tspan>
<tspan x="10" y="970">  │ │ │   └─┬ ecdsa-sig-formatter@1.0.9 </tspan>
<tspan x="10" y="986">  │ │ │     └── base64url@2.0.0 </tspan>
<tspan x="10" y="1002">  │ │ └─┬ request@2.81.0 </tspan>
<tspan x="10" y="1018">  │ │   ├── aws-sign2@0.6.0 </tspan>
<tspan x="10" y="1034">  │ │   ├── aws4@1.6.0 </tspan>
<tspan x="10" y="1050">  │ │   ├── caseless@0.12.0 </tspan>
<tspan x="10" y="1066">  │ │   ├─┬ combined-stream@1.0.5 </tspan>
<tspan x="10" y="1082">  │ │   │ └── delayed-stream@1.0.0 </tspan>
<tspan x="10" y="1098">  │ │   ├── extend@3.0.0 </tspan>
<tspan x="10" y="1114">  │ │   ├── forever-agent@0.6.1 </tspan>
<tspan x="10" y="1130">  │ │   ├─┬ form-data@2.1.4 </tspan>
<tspan x="10" y="1146">  │ │   │ └── asynckit@0.4.0 </tspan>
<tspan x="10" y="1162">  │ │   ├─┬ har-validator@4.2.1 </tspan>
<tspan x="10" y="1178">  │ │   │ ├─┬ ajv@4.11.7 </tspan>
<tspan x="10" y="1194">  │ │   │ │ ├── co@4.6.0 </tspan>
<tspan x="10" y="1210">  │ │   │ │ └─┬ json-stable-stringify@1.0.1 </tspan>
<tspan x="10" y="1226">  │ │   │ │   └── jsonify@0.0.0 </tspan>
<tspan x="10" y="1242">  │ │   │ └── har-schema@1.0.5 </tspan>
<tspan x="10" y="1258">  │ │   ├─┬ hawk@3.1.3 </tspan>
<tspan x="10" y="1274">  │ │   │ ├── boom@2.10.1 </tspan>
<tspan x="10" y="1290">  │ │   │ ├── cryptiles@2.0.5 </tspan>
<tspan x="10" y="1306">  │ │   │ ├── hoek@2.16.3 </tspan>
<tspan x="10" y="1322">  │ │   │ └── sntp@1.0.9 </tspan>
<tspan x="10" y="1338">  │ │   ├─┬ http-signature@1.1.1 </tspan>
<tspan x="10" y="1354">  │ │   │ ├── assert-plus@0.2.0 </tspan>
<tspan x="10" y="1370">  │ │   │ ├─┬ jsprim@1.4.0 </tspan>
<tspan x="10" y="1386">  │ │   │ │ ├── assert-plus@1.0.0 </tspan>
<tspan x="10" y="1402">  │ │   │ │ ├── extsprintf@1.0.2 </tspan>
<tspan x="10" y="1418">  │ │   │ │ ├── json-schema@0.2.3 </tspan>
<tspan x="10" y="1434">  │ │   │ │ └── verror@1.3.6 </tspan>
<tspan x="10" y="1450">  │ │   │ └─┬ sshpk@1.13.0 </tspan>
<tspan x="10" y="1466">  │ │   │   ├── asn1@0.2.3 </tspan>
<tspan x="10" y="1482">  │ │   │   ├── assert-plus@1.0.0 </tspan>
<tspan x="10" y="1498">  │ │   │   ├── bcrypt-pbkdf@1.0.1 </tspan>
<tspan x="10" y="1514">  │ │   │   ├─┬ dashdash@1.14.1 </tspan>
<tspan x="10" y="1530">  │ │   │   │ └── assert-plus@1.0.0 </tspan>
<tspan x="10" y="1546">  │ │   │   ├── ecc-jsbn@0.1.1 </tspan>
<tspan x="10" y="1562">  │ │   │   ├─┬ getpass@0.1.6 </tspan>
<tspan x="10" y="1578">  │ │   │   │ └── assert-plus@1.0.0 </tspan>
<tspan x="10" y="1594">  │ │   │   ├── jodid25519@1.0.2 </tspan>
<tspan x="10" y="1610">  │ │   │   ├── jsbn@0.1.1 </tspan>
<tspan x="10" y="1626">  │ │   │   └── tweetnacl@0.14.5 </tspan>
<tspan x="10" y="1642">  │ │   ├── is-typedarray@1.0.0 </tspan>
<tspan x="10" y="1658">  │ │   ├── isstream@0.1.2 </tspan>
<tspan x="10" y="1674">  │ │   ├─┬ mime-types@2.1.15 </tspan>
<tspan x="10" y="1690">  │ │   │ └── mime-db@1.27.0 </tspan>
<tspan x="10" y="1706">  │ │   ├── oauth-sign@0.8.2 </tspan>
<tspan x="10" y="1722">  │ │   ├── performance-now@0.2.0 </tspan>
<tspan x="10" y="1738">  │ │   ├── qs@6.4.0 </tspan>
<tspan x="10" y="1754">  │ │   ├── safe-buffer@5.0.1 </tspan>
<tspan x="10" y="1770">  │ │   └── tunnel-agent@0.6.0 </tspan>
<tspan x="10" y="1786">  │ ├── node-uuid@1.4.8 </tspan>
<tspan x="10" y="1802">  │ ├─┬ protobufjs@3.8.2 </tspan>
<tspan x="10" y="1818">  │ │ ├─┬ ascli@0.3.0 </tspan>
<tspan x="10" y="1834">  │ │ │ ├── colour@0.7.1 </tspan>
<tspan x="10" y="1850">  │ │ │ └── optjs@3.2.2 </tspan>
<tspan x="10" y="1866">  │ │ └─┬ bytebuffer@3.5.5 </tspan>
<tspan x="10" y="1882">  │ │   ├── bufferview@1.0.1 </tspan>
<tspan x="10" y="1898">  │ │   └── long@2.4.0 </tspan>
<tspan x="10" y="1914">  │ └─┬ stream-events@1.0.1 </tspan>
<tspan x="10" y="1930">  │   └── stubs@1.1.2 </tspan>
<tspan x="10" y="1946">  ├── ip@0.3.3 </tspan>
<tspan x="10" y="1962">  ├── lodash@3.10.1 </tspan>
<tspan x="10" y="1978">  ├── mime@1.2.11 </tspan>
<tspan x="10" y="1994">  ├── qs@1.2.2 </tspan>
<tspan x="10" y="2010">  ├─┬ request@2.40.0 </tspan>
<tspan x="10" y="2026">  │ ├── aws-sign2@0.5.0 </tspan>
<tspan x="10" y="2042">  │ ├── forever-agent@0.5.2 </tspan>
<tspan x="10" y="2058">  │ ├─┬ form-data@0.1.4 </tspan>
<tspan x="10" y="2074">  │ │ └─┬ combined-stream@0.0.7 </tspan>
<tspan x="10" y="2090">  │ │   └── delayed-stream@0.0.5 </tspan>
<tspan x="10" y="2106">  │ ├─┬ hawk@1.1.1 </tspan>
<tspan x="10" y="2122">  │ │ ├── boom@0.4.2 </tspan>
<tspan x="10" y="2138">  │ │ ├── cryptiles@0.2.2 </tspan>
<tspan x="10" y="2154">  │ │ ├── hoek@0.9.1 </tspan>
<tspan x="10" y="2170">  │ │ └── sntp@0.2.4 </tspan>
<tspan x="10" y="2186">  │ ├─┬ http-signature@0.10.1 </tspan>
<tspan x="10" y="2202">  │ │ ├── asn1@0.1.11 </tspan>
<tspan x="10" y="2218">  │ │ ├── assert-plus@0.1.5 </tspan>
<tspan x="10" y="2234">  │ │ └── ctype@0.5.3 </tspan>
<tspan x="10" y="2250">  │ ├── json-stringify-safe@5.0.1 </tspan>
<tspan x="10" y="2266">  │ ├── mime-types@1.0.2 </tspan>
<tspan x="10" y="2282">  │ ├── node-uuid@1.4.8 </tspan>
<tspan x="10" y="2298">  │ ├── oauth-sign@0.3.0 </tspan>
<tspan x="10" y="2314">  │ ├── qs@1.0.2 </tspan>
<tspan x="10" y="2330">  │ ├── stringstream@0.0.5 </tspan>
<tspan x="10" y="2346">  │ ├─┬ tough-cookie@2.3.2 </tspan>
<tspan x="10" y="2362">  │ │ └── punycode@1.4.1 </tspan>
<tspan x="10" y="2378">  │ └── tunnel-agent@0.4.3 </tspan>
<tspan x="10" y="2394">  ├── s3-upload-stream@1.0.7 </tspan>
<tspan x="10" y="2410">  ├─┬ through2@0.6.5 </tspan>
<tspan x="10" y="2426">  │ ├─┬ readable-stream@1.0.34 </tspan>
<tspan x="10" y="2442">  │ │ ├── core-util-is@1.0.2 </tspan>
<tspan x="10" y="2458">  │ │ ├── isarray@0.0.1 </tspan>
<tspan x="10" y="2474">  │ │ └── string_decoder@0.10.31 </tspan>
<tspan x="10" y="2490">  │ └── xtend@4.0.1 </tspan>
<tspan x="10" y="2506">  ├── url-join@0.0.1 </tspan>
<tspan x="10" y="2522">  └── xml2js@0.1.14</tspan>
</text>
</svg>
